<svg width="32" height="32" viewBox="0 0 32 32" version="1.1" xmlns="http://www.w3.org/2000/svg" xmlns:xlink="http://www.w3.org/1999/xlink"><g id="icon" stroke="none" stroke-width="1" fill="none" fill-rule="evenodd"><g id="Main-Screen" transform="translate(-1309.000000, -450.000000)" fill="#16325C" fill-rule="nonzero"><g id="UI" transform="translate(333.000000, 128.000000)"><g id="Resources" transform="translate(952.000000, 0.000000)"><g id="Middle" transform="translate(24.000000, 316.000000)"><g id="code_playground.f794a734" transform="translate(0.000000, 6.000000)"><path d="M28.6933333,0 L3.30666667,0 C1.49333333,0 0,1.49333333 0,3.30666667 L0,28.6933333 C0,30.5066667 1.49333333,32 3.30666667,32 L28.6933333,32 C30.5066667,32 32,30.5066667 32,28.6933333 L32,3.30666667 C32,1.49333333 30.5066667,0 28.6933333,0 Z M4.42666667,3.30666667 L27.5733333,3.30666667 C28.16,3.30666667 28.6933333,3.78666667 28.6933333,4.42666667 L28.6933333,6.50666667 L3.30666667,6.50666667 L3.30666667,4.42666667 C3.30666667,3.78666667 3.78666667,3.30666667 4.42666667,3.30666667 Z M27.5733333,28.6933333 L4.42666667,28.6933333 C3.84,28.6933333 3.30666667,28.2133333 3.30666667,27.5733333 L3.30666667,9.70666667 L28.6933333,9.70666667 L28.6933333,27.5733333 C28.6933333,28.2133333 28.2133333,28.6933333 27.5733333,28.6933333 Z" id="Shape"/><path d="M14.24,23.0933333 L10.72,19.5733333 L14.24,16.0533333 C14.4533333,15.84 14.4533333,15.52 14.24,15.3066667 L12.7466667,13.8133333 C12.5333333,13.6 12.2133333,13.6 12,13.8133333 L8.10666667,17.7066667 C8.10666667,17.7066667 8.10666667,17.7066667 8.10666667,17.7066667 L7.30666667,18.5066667 L6.61333333,19.2 C6.50666667,19.3066667 6.45333333,19.4666667 6.45333333,19.5733333 C6.45333333,19.7333333 6.50666667,19.84 6.61333333,19.9466667 L12.0533333,25.3866667 C12.2666667,25.6 12.5866667,25.6 12.8,25.3866667 L14.2933333,23.8933333 C14.4533333,23.6266667 14.4533333,23.3066667 14.24,23.0933333 Z" id="Path"/><path d="M25.44,19.1466667 L24.7466667,18.4533333 L23.9466667,17.6533333 C23.9466667,17.6533333 23.9466667,17.6533333 23.9466667,17.6533333 L20.0533333,13.76 C19.84,13.5466667 19.52,13.5466667 19.3066667,13.76 L17.8133333,15.2533333 C17.6,15.4666667 17.6,15.7866667 17.8133333,16 L21.3333333,19.52 L17.8133333,23.04 C17.6,23.2533333 17.6,23.5733333 17.8133333,23.7866667 L19.3066667,25.28 C19.52,25.4933333 19.84,25.4933333 20.0533333,25.28 L25.4933333,19.84 C25.6,19.7333333 25.6533333,19.5733333 25.6533333,19.4666667 C25.6,19.4133333 25.5466667,19.2533333 25.44,19.1466667 Z" id="Path"/></g></g></g></g></g></g></svg>