<svg width="32" height="32" viewBox="0 0 32 32" version="1.1" xmlns="http://www.w3.org/2000/svg" xmlns:xlink="http://www.w3.org/1999/xlink"><g id="icon" stroke="none" stroke-width="1" fill="none" fill-rule="evenodd"><g id="Main-Screen" transform="translate(-1309.000000, -248.000000)" fill="#16325C" fill-rule="nonzero"><g id="UI" transform="translate(333.000000, 128.000000)"><g id="Resources" transform="translate(952.000000, 0.000000)"><g id="Top" transform="translate(24.000000, 112.000000)"><g id="component_customization.0272b979" transform="translate(0.000000, 8.000000)"><path d="M31.3469388,2.22040816 C31.3469388,0 29.5183673,0 29.5183673,0 L1.89387755,0 C1.56734694,0.0653061224 0,0.195918367 0,1.95918367 L0,11.2326531 C0.0653061224,11.6244898 0.391836735,13.0612245 1.95918367,13.0612245 L29.5183673,13.0612245 C31.5428571,13.0612245 31.3469388,11.2979592 31.3469388,11.2979592 L31.3469388,2.22040816 Z" id="Path"/><path d="M30.7591837,21.7469388 C30.3673469,21.6816327 29.9755102,21.6816327 29.5836735,21.6163265 C29.5183673,21.6163265 29.4530612,21.5510204 29.4530612,21.4857143 C29.322449,21.0285714 29.0612245,20.5714286 28.9306122,20.244898 C28.9306122,20.1795918 28.9306122,20.1142857 28.9306122,20.0489796 C29.1265306,19.722449 29.4530612,19.3959184 29.6489796,19.0693878 C29.7795918,18.8734694 29.7795918,18.6122449 29.5836735,18.4163265 C29.1265306,17.9591837 28.6693878,17.5020408 28.277551,17.1102041 C28.2122449,17.044898 28.0816327,16.9795918 27.9510204,16.9795918 C27.8857143,16.9795918 27.755102,17.044898 27.6244898,17.1102041 C27.2979592,17.3061224 26.9714286,17.6326531 26.644898,17.8285714 C26.5795918,17.8285714 26.5795918,17.8938776 26.5795918,17.8938776 L26.5142857,17.8938776 C26.0571429,17.7632653 25.7306122,17.5020408 25.2734694,17.3714286 C25.2081633,17.3714286 25.1428571,17.3061224 25.1428571,17.2408163 C25.077551,16.8489796 25.077551,16.522449 25.0122449,16.1306122 C25.0122449,15.9346939 24.9469388,15.7387755 24.6857143,15.6081633 C24.6204082,15.5428571 24.555102,15.5428571 24.555102,15.5428571 C23.9020408,15.5428571 23.3142857,15.5428571 22.6612245,15.5428571 C22.5306122,15.5428571 22.4653061,15.5428571 22.3346939,15.6081633 C22.2040816,15.7387755 22.0081633,15.9346939 22.0081633,16.1306122 C22.0081633,16.522449 21.9428571,16.8489796 21.877551,17.2408163 C21.877551,17.3061224 21.8122449,17.3714286 21.7469388,17.3714286 C21.2897959,17.5020408 20.9632653,17.7632653 20.5061224,17.8938776 L20.4408163,17.8938776 C20.3755102,17.8938776 20.3755102,17.8938776 20.3102041,17.8285714 C19.9836735,17.6326531 19.722449,17.3061224 19.3306122,17.1102041 C19.2653061,17.044898 19.2,16.9795918 19.0040816,16.9795918 C18.8081633,16.9795918 18.8081633,17.044898 18.6122449,17.1102041 C18.155102,17.5673469 17.6979592,18.0244898 17.3061224,18.4163265 C17.1102041,18.6122449 17.1102041,18.8734694 17.2408163,19.0693878 C17.4367347,19.3959184 17.7632653,19.6571429 17.9591837,20.0489796 C18.0244898,20.1142857 18.0244898,20.1795918 17.9591837,20.244898 C17.8285714,20.7020408 17.5673469,21.0285714 17.4367347,21.4857143 C17.4367347,21.5510204 17.3714286,21.6163265 17.3061224,21.6163265 C16.9142857,21.6816327 16.5877551,21.6816327 16.1959184,21.7469388 C16,21.7469388 15.7387755,21.877551 15.6734694,22.1387755 C15.6734694,22.8571429 15.6734694,23.6408163 15.6734694,24.3591837 C15.8040816,24.555102 16,24.6857143 16.1959184,24.7510204 C16.5877551,24.7510204 16.9142857,24.8163265 17.3061224,24.8816327 C17.3714286,24.8816327 17.4367347,24.9469388 17.4367347,25.0122449 C17.5673469,25.4693878 17.8285714,25.7959184 17.9591837,26.2530612 C17.9591837,26.3183673 18.0244898,26.3836735 17.9591837,26.4489796 C17.7632653,26.7755102 17.4367347,27.1020408 17.2408163,27.4285714 C17.1102041,27.6244898 17.1102041,27.8857143 17.3061224,28.0816327 C17.7632653,28.5387755 18.2204082,28.9959184 18.6122449,29.3877551 C18.7428571,29.5183673 18.8081633,29.5183673 19.0040816,29.5183673 C19.0693878,29.5183673 19.2,29.4530612 19.3306122,29.3877551 C19.6571429,29.1918367 19.9183673,28.8653061 20.3102041,28.6693878 C20.3755102,28.6693878 20.3755102,28.6040816 20.4408163,28.6040816 L20.5061224,28.6040816 C20.9632653,28.7346939 21.2897959,28.9959184 21.7469388,29.1265306 C21.8122449,29.1265306 21.877551,29.1918367 21.877551,29.2571429 C21.9428571,29.6489796 21.9428571,30.0408163 22.0081633,30.4326531 C22.0081633,30.7591837 22.2040816,30.8897959 22.5306122,30.8897959 C22.8571429,30.8897959 23.1836735,30.8897959 23.5102041,30.8897959 C23.8367347,30.8897959 24.0979592,30.8897959 24.4244898,30.8897959 C24.7510204,30.8897959 24.8816327,30.7591837 24.9469388,30.4326531 C25.0122449,30.0408163 25.0122449,29.6489796 25.077551,29.2571429 C25.077551,29.1918367 25.1428571,29.1265306 25.2081633,29.1265306 C25.6653061,28.9959184 26.122449,28.7346939 26.4489796,28.6040816 L26.5142857,28.6040816 C26.5142857,28.6040816 26.5795918,28.6040816 26.5795918,28.6693878 C26.9061224,28.8653061 27.2326531,29.1918367 27.5591837,29.3877551 C27.6244898,29.4530612 27.755102,29.5183673 27.8857143,29.5183673 C28.0163265,29.5183673 28.0816327,29.4530612 28.277551,29.3877551 C28.7346939,28.9306122 29.1918367,28.4734694 29.5836735,28.0816327 C29.7795918,27.8857143 29.7795918,27.6244898 29.6489796,27.4285714 C29.4530612,27.1020408 29.1265306,26.8408163 28.9306122,26.4489796 C28.8653061,26.3836735 28.8653061,26.3183673 28.9306122,26.2530612 C29.0612245,25.7959184 29.322449,25.4693878 29.4530612,25.0122449 C29.4530612,24.9469388 29.5183673,24.8816327 29.5836735,24.8816327 C29.9755102,24.8163265 30.3673469,24.8163265 30.7591837,24.7510204 C31.0857143,24.7510204 31.2163265,24.555102 31.2163265,24.2285714 C31.2163265,23.6408163 31.2163265,22.9877551 31.2163265,22.4 C31.2163265,21.9428571 31.0857143,21.8122449 30.7591837,21.7469388 Z M23.5102041,26.1877551 L23.5102041,26.1877551 L23.5102041,26.1877551 C21.8122449,26.1877551 20.5714286,24.8816327 20.5714286,23.2489796 C20.5714286,21.6163265 21.877551,20.3102041 23.5102041,20.3102041 C25.1428571,20.3102041 26.4489796,21.6163265 26.4489796,23.2489796 C26.3836735,24.8163265 25.077551,26.1877551 23.5102041,26.1877551 Z" id="Shape"/><path d="M13.9755102,16.8489796 C13.9102041,15.8040816 12.9959184,15.6734694 12.7346939,15.6734694 L1.1755102,15.6734694 C0.848979592,15.6734694 0,15.8040816 0,16.9795918 L0,30.4326531 C0.0653061224,30.7591837 0.26122449,31.3469388 1.30612245,31.3469388 L12.7346939,31.3469388 C14.0408163,31.3469388 14.0408163,29.844898 14.0408163,29.844898 C14.0408163,29.322449 14.0408163,28.8 14.0408163,28.277551 C14.0408163,27.6244898 14.1714286,26.9061224 13.7795918,26.2530612 C13.7142857,26.122449 13.6489796,26.0571429 13.5836735,25.9265306 C13.5183673,25.7959184 13.4530612,25.7306122 13.3877551,25.6 C12.9959184,25.0122449 13.0612245,24.2938776 13.0612245,23.5755102 C13.0612245,22.922449 13.0612245,22.2040816 13.3877551,21.6163265 C13.5183673,21.355102 13.7142857,21.0938776 13.844898,20.8326531 C14.1061224,20.4408163 14.1061224,19.9183673 14.1061224,19.4612245 L13.9755102,16.8489796 Z" id="Path"/></g></g></g></g></g></g></svg>