<svg width="32" height="31" viewBox="0 0 32 31" version="1.1" xmlns="http://www.w3.org/2000/svg" xmlns:xlink="http://www.w3.org/1999/xlink"><g id="icon" stroke="none" stroke-width="1" fill="none" fill-rule="evenodd"><g id="Main-Screen" transform="translate(-1309.000000, -653.000000)" fill="#16325C" fill-rule="nonzero"><g id="UI" transform="translate(333.000000, 128.000000)"><g id="Resources" transform="translate(952.000000, 0.000000)"><g id="Bottom" transform="translate(24.000000, 520.000000)"><g id="report_issue.c40bb098" transform="translate(0.000000, 5.000000)"><path d="M13.8666667,28.4666667 L13.8666667,29.1333333 C13.8666667,29.9333333 13.2666667,30.5333333 12.4666667,30.5333333 L12.4666667,30.5333333 L1.4,30.5333333 C0.6,30.5333333 0,29.9333333 0,29.1333333 L0,29.1333333 L0,28.4666667 C0,26.8 2,25.7333333 3.8,24.9333333 C3.86666667,24.9333333 3.93333333,24.8666667 4,24.8 C4.13333333,24.7333333 4.33333333,24.7333333 4.46666667,24.8 C5.2,25.2666667 6.06666667,25.5333333 7,25.5333333 C7.86666667,25.5333333 8.73333333,25.2666667 9.53333333,24.8 C9.66666667,24.7333333 9.8,24.7333333 9.93333333,24.8 C10,24.8 10.0666667,24.8666667 10.1333333,24.9333333 C11.9333333,25.8 13.8666667,26.8 13.8666667,28.4666667 Z" id="Path"/><ellipse id="Oval" cx="6.93333333" cy="20.4666667" rx="3.46666667" ry="3.8"/><path d="M21.8666667,0.133333333 L21.8666667,0.133333333 C16.2,0.133333333 11.6666667,4.46666667 11.6666667,9.8 C11.6666667,11.4666667 12.1333333,13.1333333 13,14.6 C13.0666667,14.7333333 13.1333333,14.9333333 13.1333333,15.1333333 L12,18.2 C11.8666667,18.6 12.1333333,18.9333333 12.4666667,19.0666667 C12.6,19.1333333 12.7333333,19.1333333 12.8666667,19.0666667 L15.8666667,18 C16.0666667,17.9333333 16.2666667,17.9333333 16.4,18.0666667 C18,19 19.8666667,19.5333333 21.7333333,19.5333333 C27.4,19.5333333 31.9333333,15.1333333 31.9333333,9.8 C32,4.46666667 27.4,0.133333333 21.8666667,0.133333333 Z M21.1333333,3.93333333 L23.1333333,3.93333333 L23.1333333,8.6 L22.9333333,11.6666667 L21.3333333,11.6666667 L21.2,8.6 L21.2,3.93333333 L21.1333333,3.93333333 Z M22.1333333,15.4666667 C21.2,15.4666667 20.9333333,14.9333333 20.9333333,14.2666667 C20.9333333,13.6 21.2,13.0666667 22.1333333,13.0666667 C23.0666667,13.0666667 23.3333333,13.6 23.3333333,14.2666667 C23.4,14.9333333 23.0666667,15.4666667 22.1333333,15.4666667 Z" id="Shape"/></g></g></g></g></g></g></svg>