<svg xmlns="http://www.w3.org/2000/svg" xmlns:xlink="http://www.w3.org/1999/xlink" width="233" height="149" viewBox="0 0 233 149">
  <defs>
    <path id="buggy-a" d="M1.3378821,2.84147107 L179.741782,0.968015627 C180.55341,0.959492555 181.218274,1.61053795 181.226797,2.42216621 C181.227102,2.4511264 181.22655,2.48008925 181.225142,2.50901682 L180.817686,10.8838612 C180.779592,11.6668449 180.133668,12.282107 179.349758,12.282107 L2.95025554,12.282107 C2.27361804,12.282107 1.68442196,11.8201215 1.52301682,11.1630167 L-0.0739242273,4.66162776 C-0.267540746,3.87338559 0.214498591,3.07743185 1.00274077,2.88381533 C1.11245566,2.85686598 1.22491211,2.84265739 1.3378821,2.84147107 Z"/>
    <path id="buggy-c" d="M1.63953379,0.283172465 L118.004785,1.05635973 C118.81644,1.06175277 119.470045,1.72410114 119.464652,2.53575624 C119.46463,2.53898848 119.464598,2.54222064 119.464555,2.54545267 L118.48042,76.857828 C118.469807,77.6592435 117.819035,78.3043768 117.017557,78.3080155 L4.58700945,78.8184419 C3.79505902,78.8220373 3.14267874,78.1974675 3.11179152,77.4061115 L0.161223009,1.81012248 C0.129566901,0.999067008 0.761394922,0.315914297 1.57245039,0.28425819 C1.59480035,0.283385854 1.61716731,0.283023852 1.63953379,0.283172465 Z"/>
    <filter id="buggy-e" width="128.6%" height="127%" x="-14.3%" y="-13.5%" filterUnits="objectBoundingBox">
      <feGaussianBlur in="SourceGraphic" stdDeviation="1"/>
    </filter>
    <path id="buggy-f" d="M0.737307432,16.4742022 C-0.39530476,12.716525 -0.223023306,9.15359893 1.25415179,5.78542399 C3.46991444,0.733161575 8.50921287,0.0217566731 10.3333229,0.0217566731 C12.157433,0.0217566731 15.0450744,-0.296658718 18.1845604,1.50277721 C20.2775511,2.70240116 21.2035988,5.807063 20.9627035,10.8167627 C20.3523348,14.5590601 18.4281792,17.392966 15.1902367,19.3184805 C11.9522942,21.243995 9.20563056,21.5158239 6.95024581,20.1339673 L0.737307432,16.4742022 Z"/>
    <path id="buggy-h" d="M31.5,16.5 L31.5,16.5 C36.4705627,16.5 40.5,20.5294373 40.5,25.5 L40.5,49.5 C40.5,52.8137085 37.8137085,55.5 34.5,55.5 L25.9792638,55.5 C22.6655553,55.5 19.9792638,52.8137085 19.9792638,49.5 C19.9792638,49.3464374 19.9851591,49.1929313 19.9969368,49.039821 L21.8097315,25.4734904 C22.1992328,20.4099732 26.4215242,16.5 31.5,16.5 Z"/>
  </defs>
  <g fill="none" fill-rule="evenodd">
    <g transform="translate(51 13)">
      <g>
        <path fill="#58575B" d="M15.7447474,0.598360372 L168.354534,3.42636738 C169.977601,3.45644439 171.268975,4.7965827 171.238898,6.41965007 C171.238775,6.42630097 171.238629,6.43295143 171.23846,6.43960133 L168.586275,111.171382 C168.545913,112.765231 167.242248,114.0363 165.647889,114.0363 L19.4615459,114.0363 C17.8782858,114.0363 16.579501,112.782255 16.5240229,111.199967 L12.7527652,3.64017916 C12.6958825,2.01783003 13.9649437,0.65654363 15.5872928,0.599660879 C15.6397567,0.597821394 15.6922604,0.597387737 15.7447474,0.598360372 Z"/>
        <g transform="translate(0 108.939)">
          <mask id="buggy-b" fill="#fff">
            <use xlink:href="#buggy-a"/>
          </mask>
          <use fill="#EDE8E4" xlink:href="#buggy-a"/>
          <path fill="#C1B8B4" d="M76.0973585,-4.47129095 L106.19456,-4.64367877 C106.843888,-4.64739793 107.373287,-4.12402875 107.377006,-3.47470099 C107.37703,-3.47052757 107.377032,-3.46635405 107.377011,-3.46218061 L107.343671,3.3122544 C107.337328,4.60114729 106.294593,5.64472336 105.005705,5.65210573 L77.2600609,5.81102453 C75.9614054,5.81846284 74.9026072,4.77172448 74.8951688,3.47306895 C74.895121,3.46472211 74.8951177,3.45637507 74.8951587,3.44802819 L74.9283757,-3.30136529 C74.9315473,-3.94581174 75.4529148,-4.46759977 76.0973585,-4.47129095 Z" mask="url(#buggy-b)" opacity=".8" transform="rotate(-2 91.136 .584)"/>
          <path fill="#C1B8B4" d="M-4.55489746,8.33387958 L188.428386,9.25315638 C185.561462,12.2507101 183.262945,14.2278525 181.532836,15.1845837 C179.802727,16.1413149 177.559553,16.675677 174.803315,16.7876699 L-0.826250908,15.6241793 L-4.55489746,8.33387958 Z" mask="url(#buggy-b)" opacity=".8" transform="rotate(-1 91.937 12.56)"/>
        </g>
        <path fill="#CEC5BC" d="M21.5019806,8.818935 L160.734952,9.11571494 C161.543477,9.11743834 162.198763,9.77192523 162.201475,10.5804476 L162.520056,105.58956 C162.522778,106.401228 161.866997,107.061422 161.055328,107.064143 C161.053686,107.064149 161.052043,107.064152 161.0504,107.064152 L24.2665591,107.064152 C23.4714992,107.064152 22.8205935,106.431874 22.7975145,105.637149 L20.0298033,10.3312572 C20.006242,9.51992618 20.6448555,8.84311228 21.4561865,8.81955098 C21.4714471,8.81910781 21.4867136,8.81890246 21.5019806,8.818935 Z"/>
        <g transform="translate(31.246 17.786)">
          <mask id="buggy-d" fill="#fff">
            <use xlink:href="#buggy-c"/>
          </mask>
          <use fill="#FFF" xlink:href="#buggy-c"/>
          <polygon fill="#CBC3C0" fill-opacity=".5" points="-7.651 9.987 128.419 11.966 128.419 .44 -7.651 .44" mask="url(#buggy-d)" transform="matrix(-1 0 0 1 120.768 0)"/>
        </g>
        <ellipse cx="38.835" cy="23.591" fill="#D3451E" rx="2.432" ry="2.424"/>
        <ellipse cx="46.351" cy="23.591" fill="#EBBC47" rx="2.432" ry="2.424"/>
        <ellipse cx="53.868" cy="23.591" fill="#00B1A9" rx="2.432" ry="2.424"/>
        <path stroke="#FFF" stroke-linecap="round" stroke-linejoin="round" stroke-width="1.176" d="M43.0597379 39.9880157L64.3661055 39.9880157M42.4698785 42.928311L54.3384953 42.928311"/>
      </g>
      <g fill-rule="nonzero" stroke-linecap="round" stroke-linejoin="round" stroke-width="3.24" transform="translate(48.538 40.407)">
        <path stroke="#978C81" d="M0,0.633726608 L30.740566,0.982552462"/>
        <path stroke="#39959C" d="M14.5613208,13.7383721 L46.9198113,13.7383721"/>
        <path stroke="#CEC5BC" d="M1.61792453,24.9144131 L24.2688679,25.1902381"/>
        <path stroke="#978C81" d="M21.0330189,38.083586 L40.4481132,37.8815303"/>
        <path stroke="#DFD8D1" d="M6.47169811,47.7979193 L27.504717,47.5625458"/>
        <path stroke="#39959C" d="M35.5943396,45.9634407 L46.9198113,46.1644663"/>
        <path stroke="#DFD8D1" d="M33.9764151,25.0523256 L45.3018868,25.0523256"/>
        <path stroke="#978C81" d="M53.3915094,13.4732013 L74.4245283,14.0035429"/>
        <path stroke="#DFD8D1" d="M40.4481132,0.578482694 L56.6273585,1.03779638"/>
        <path stroke="#CEC5BC" d="M64.7169811,2.4244186 L90.6037736,2.4244186"/>
      </g>
    </g>
    <path fill="#3E3E3C" fill-opacity=".2" fill-rule="nonzero" d="M189.928359,99.5297994 C187.02024,101.685522 184.150552,100.892211 182.421387,99.2988281 C181.456678,98.4098729 181.172278,97.0024506 181.568186,95.0765612 L181.565072,95.0747268 C180.43246,91.3170497 180.604741,87.7541236 182.081916,84.3859487 C184.297679,79.3336863 189.336977,78.6222814 191.161088,78.6222814 C192.985198,78.6222814 195.872839,78.303866 199.012325,80.1033019 C201.105316,81.3029258 202.031363,84.4075877 201.790468,89.4172874 C201.180099,93.1595848 199.255944,95.9934907 196.018001,97.9190052 C193.746301,99.2699225 191.71642,99.8068539 189.928359,99.5297994 Z" filter="url(#buggy-e)"/>
    <g transform="translate(170.447 68.346)">
      <polyline stroke="#706E6B" stroke-linecap="round" stroke-linejoin="round" points="16.427 9.084 15.058 7.671 21.726 .943 20.84 0"/>
      <polyline stroke="#706E6B" stroke-linecap="round" stroke-linejoin="round" points="11.542 13.595 9.122 12.501 10.703 3.493 9.563 3.131"/>
      <path stroke="#706E6B" stroke-linecap="round" stroke-linejoin="round" d="M29.7987724,19.6535645 C29.8218046,19.6535645 30.397995,19.8506673 31.5273438,20.244873 L33.6535645,10.9387207 L34.7902832,10.9387207"/>
      <polyline stroke="#706E6B" stroke-linecap="round" stroke-linejoin="round" points="25.835 25.271 26.188 27.442 35.597 27.087 35.597 28.054"/>
      <polyline stroke="#706E6B" stroke-linecap="round" stroke-linejoin="round" points="22.573 27.071 23.279 28.054 20.107 36.908 21.166 37.421"/>
      <polyline stroke="#706E6B" stroke-linecap="round" stroke-linejoin="round" points="9.948 18.623 7.845 17.886 1.006 23.987 0 23.16"/>
      <path stroke="#706E6B" stroke-linecap="round" stroke-linejoin="round" d="M10.3950195,25.6535645 C7.7360026,26.7354092 5.45532227,27.152843 3.55297852,26.905866"/>
      <path stroke="#706E6B" stroke-linecap="round" stroke-linejoin="round" d="M16.4106445,31.9558105 C13.7516276,33.0376553 11.4709473,33.4550891 9.56860352,33.2081121" transform="scale(1 -1) rotate(90 45.606 0)"/>
      <path fill="#706E6B" fill-rule="nonzero" d="M10.9743652,21.0429687 C9.60636393,24.3886719 9.60636393,26.6918132 10.9743652,27.9523926 C13.0263672,29.8432617 16.6845228,30.6074219 20.1070319,26.6535645 C22.3887046,24.0176595 19.3444824,22.1474609 10.9743652,21.0429687 Z"/>
      <g transform="translate(9.38 7.254)">
        <mask id="buggy-g" fill="#fff">
          <use xlink:href="#buggy-f"/>
        </mask>
        <use fill="#C23934" fill-rule="nonzero" xlink:href="#buggy-f"/>
        <path fill="#94221E" fill-rule="nonzero" d="M4.26945938,19.4085977 C9.6466559,8.18669581 14.8517855,1.80344667 19.8848483,0.258850317 C24.9179111,-1.28574604 28.8537277,4.08227586 31.6922983,16.362916 L11.4594093,23.4751589 L4.26945938,19.4085977 Z" mask="url(#buggy-g)"/>
      </g>
      <circle cx="25.553" cy="16.654" r="3" fill="#290F19" fill-rule="nonzero" style="mix-blend-mode:multiply"/>
      <circle cx="23.553" cy="23.654" r="2" fill="#290F19" fill-rule="nonzero" style="mix-blend-mode:multiply"/>
      <circle cx="13.553" cy="16.654" r="3" fill="#290F19" fill-rule="nonzero" opacity=".8"/>
      <circle cx="17.053" cy="24.154" r="1.5" fill="#290F19" fill-rule="nonzero" style="mix-blend-mode:multiply"/>
      <circle cx="18.053" cy="11.154" r="1.5" fill="#290F19" fill-rule="nonzero" opacity=".8"/>
    </g>
    <g transform="matrix(-1 0 0 1 45 66)">
      <path fill="#768F83" d="M19.5,1.5 L19.5,1.5 C26.9558441,1.5 33,7.54415588 33,15 L33,52.5 C33,55.8137085 30.3137085,58.5 27,58.5 L17.4015705,58.5 C14.3310189,58.5 11.7559778,56.181789 11.4345378,53.1281087 L7.41324459,14.9258236 C6.7105782,8.25049293 11.5523793,2.26944455 18.22771,1.56677816 C18.6503474,1.52229001 19.0750275,1.5 19.5,1.5 Z"/>
      <use fill="#768F83" xlink:href="#buggy-h"/>
      <use fill="#FFF" fill-opacity=".4" xlink:href="#buggy-h"/>
      <path fill="#DED6C7" d="M3.39517999,36.1131727 L41.9585948,37.3986198 C43.6145294,37.4538176 44.9121829,38.8409645 44.8569851,40.496899 C44.8565099,40.5111533 44.8559331,40.525404 44.8552548,40.53965 L43.6360621,66.1426954 C43.5598923,67.7422608 42.2408356,69 40.6394577,69 L5.73964391,69 C4.1880343,69 2.89244043,67.8168447 2.75196429,66.2716072 L0.307555875,39.3831146 C0.157551339,37.7330647 1.37357837,36.2738323 3.02362826,36.1238278 C3.14713953,36.1125995 3.27122823,36.1090409 3.39517999,36.1131727 Z"/>
      <path stroke="#8A5D3B" stroke-linecap="round" stroke-linejoin="round" stroke-width="1.5" d="M15.7177734.437988281L18.1186523 8.59716797M28.331543 2.1328125L24.515625 8.78613281M4.13232422 13.1748047L10.9907227 16.2597656M1.65380859 21.1757812L10.996582 24.9521484M3.13916016 32.6689453L13.3374023 30.8979492M14.4829102 23.0361328L19.9980469 26.6118164M14.0039062 12.2871094L17.9501953 15.6386719M22.5805664 19.715332L26.4199219 14.2910156M30.0307617 14.5048828L37.0107422 10.1630859M31.3842773 21.3676758L37.0869141 16.4853516M28.9995117 28.668457L36.4262695 33.4570312M34.6040039 28.3696289L39.6445312 28.3696289M25.144043 31.9379883L21.7207031 35.8330078"/>
    </g>
  </g>
</svg>
