<svg width="463" height="220" viewBox="0 0 463 220" version="1.1" xmlns="http://www.w3.org/2000/svg" xmlns:xlink="http://www.w3.org/1999/xlink"><g stroke="none" stroke-width="1" fill="none" fill-rule="evenodd"><g id="Empty-State2" transform="translate(-719.000000, -304.000000)"><g id="UI" transform="translate(333.000000, 128.000000)"><g id="Illustration-/-Empty-State" transform="translate(361.000000, 145.000000)"><g id="Empty-State" transform="translate(27.000000, 32.458781)"><g id="NoAccess" transform="translate(0.753689, 0.000000)"><g id="Tree2" transform="translate(53.711803, 130.071297)"><g id="Tree2White" fill="#FFFFFF"><path d="M20.14831,5.24304845 L33.4294253,51.4401381 C33.887209,53.0324949 32.9674558,54.6944621 31.375099,55.1522458 C31.1056174,55.2297186 30.8266051,55.2690288 30.5462083,55.2690288 L3.98397765,55.2690288 C2.3271234,55.2690288 0.983977651,53.9258831 0.983977651,52.2690288 C0.983977651,51.988632 1.02328789,51.7096197 1.10076066,51.4401381 L14.381876,5.24304845 C14.8396597,3.65069167 16.5016269,2.73093846 18.0939837,3.18872214 C19.0867775,3.47413858 19.8628935,4.25025467 20.14831,5.24304845 Z" id="Tree2WhiteBkgd"/></g><g id="Tree2LightBlue" stroke="#C2E8FF" stroke-linecap="round" stroke-width="4.5"><polygon id="Tree2LightBlueOutline1" stroke-linejoin="round" points="17.265093 0.331556514 34.530186 55.2690305 -1.81721305e-12 55.2690305"/><path d="M17.265093,4.80565495 C17.265093,44.0572242 17.265093,64.1194335 17.265093,64.992283 C17.265093,64.1194335 17.265093,44.0572242 17.265093,4.80565495 Z" id="Tree2LightBlueLine2"/><path d="M17.265093,30.0130726 C22.6815928,36.6261319 25.3898426,40.0378002 25.3898426,40.2480776 C25.3898426,40.0378002 22.6815928,36.6261319 17.265093,30.0130726 Z" id="Tree2LightBlueLine1" stroke-linejoin="round" transform="translate(21.327468, 35.130575) scale(-1, 1) translate(-21.327468, -35.130575)"/></g></g><g id="Tree1" transform="translate(74.531474, 101.413292)"><g id="Tree1White" transform="translate(1.015594, 0.000000)" fill="#FFFFFF"><path d="M26.0478329,0 L51.3107188,85.1916308 C51.7817704,86.7801132 50.8759137,88.4496954 49.2874313,88.920747 C49.0105668,89.0028489 48.7232983,89.0445451 48.434517,89.0445451 L3.66114888,89.0445451 C2.00429463,89.0445451 0.661148882,87.7013994 0.661148882,86.0445451 C0.661148882,85.7557638 0.702845096,85.4684953 0.784947011,85.1916308 L26.0478329,0 L26.0478329,0 Z" id="Tree1WhiteBkgd"/></g><g id="Tree1LightBlue" stroke="#C2E8FF" stroke-linecap="round" stroke-width="4.5"><polygon id="Tree1LightBlueOutine" stroke-linejoin="round" points="26.9132332 0 53.3186695 89.0445451 0.507796853 89.0445451"/><path d="M26.9132332,2.64720812 C26.9132332,62.4602484 26.9132332,93.1357783 26.9132332,94.6737979 C26.9132332,93.1357783 26.9132332,62.4602484 26.9132332,2.64720812 Z" id="Tree1LightBlueLine3"/><path d="M15.8918959,42.9870231 C22.6625206,50.232068 26.0478329,53.9849032 26.0478329,54.2455287 C26.0478329,53.9849032 22.6625206,50.232068 15.8918959,42.9870231 Z" id="Tree1LightBlueLine2" stroke-linejoin="round"/><path d="M28.0790203,69.5980347 C37.5578949,58.4200709 42.2973322,52.9614018 42.2973322,53.2220272 C42.2973322,52.9614018 37.5578949,58.4200709 28.0790203,69.5980347 Z" id="Tree1LightBlueLine1" stroke-linejoin="round"/></g></g><g id="Mountian" transform="translate(337.959084, 153.944881) scale(-1, 1) translate(-337.959084, -153.944881) translate(280.459084, 134.165311)" stroke="#C2E8FF" stroke-linecap="round" stroke-linejoin="round" stroke-width="4.5"><g id="MountianLightBlue"><polyline id="MountianLightBlueLine4" points="0 38.8930207 48.240701 0 81.7552933 26.6110142"/><polyline id="MountianLightBlueLine1" points="72.1071531 17.3995089 81.7552933 9.2115044 114.762089 36.8460195"/></g></g><g id="Bush1" transform="translate(0.393133, 171.523079)"><g id="Bush1LightBlue"><path d="M156.362982,27.086378 C153.583904,20.4846565 147.205003,15.8672374 139.780114,15.8672374 C137.734476,15.8672374 135.768235,16.2177286 133.934799,16.8636444 C130.454516,11.4329377 124.478686,7.8501002 117.690847,7.8501002 C111.198642,7.8501002 105.449255,11.1276436 101.915693,16.1647242 C100.502133,15.3199209 98.860243,14.8362894 97.1087958,14.8362894 C95.5758116,14.8362894 94.1267584,15.2067959 92.8412777,15.8656953 C89.3697403,6.74202543 80.7496832,0.281728618 70.6654728,0.281728618 C61.4061302,0.281728618 53.3812079,5.72837252 49.4428902,13.6823418 C47.1146142,12.5552535 44.5149818,11.9253772 41.7726631,11.9253772 C32.9431689,11.9253772 25.592844,18.4550451 24.0163755,27.086378 L156.362982,27.086378 L156.362982,27.086378 Z" id="Bush1LightBlueShape" fill="#C2E8FF"/><path d="M13.2027182,25.5875133 L145.2299,25.5875133" id="Bush1LightBlueLine" stroke="#C2E8FF" stroke-width="4.5" stroke-linecap="round"/><path d="M0,25.5875133 L457.017167,25.5875133" id="Path-4" stroke="#C2E8FF" stroke-width="4.5" stroke-linecap="round"/></g></g><g id="Bush2" transform="translate(276.634621, 155.658819)"><g id="Bush2LightBlue" transform="translate(0.298012, 0.055827)"><path d="M168.008354,42.9311956 L0.101095504,42.9311956 C0.0341864031,42.1773815 0,41.4139096 0,40.6422762 C0,26.8292858 10.954857,15.6316447 24.468358,15.6316447 C28.1819145,15.6316447 31.7022501,16.4772562 34.8551253,17.9903738 C40.1882644,7.31213984 51.0553459,0 63.5940378,0 C77.2497394,0 88.9227334,8.67297424 93.6237737,20.9215374 C95.3645287,20.0369624 97.3267882,19.5395559 99.4027044,19.5395559 C101.774456,19.5395559 103.997848,20.1888331 105.912044,21.3229849 C110.697077,14.5606841 118.482705,10.160569 127.274232,10.160569 C140.19605,10.160569 150.9448,19.6662359 153.186828,32.2066362 C153.849638,32.1001547 154.529076,32.0448716 155.221146,32.0448716 C161.598321,32.0448716 166.902911,36.7389306 168.008354,42.9311956 L168.008354,42.9311956 Z" id="Bush2LightBlueShape" fill="#C2E8FF"/><path d="M33.2165802,41.3959431 L176.415293,41.3959431" id="Bush2LightBlueLine" stroke="#C2E8FF" stroke-width="4.5" stroke-linecap="round"/></g></g><g id="Chest" transform="translate(33.907725, 96.295786)"><g id="ChestWhite" transform="translate(107.652933, 49.128025)" fill="#FFFFFF"><polygon id="MiddlePartBkgd" points="123.394635 14.8407574 160.971602 14.8407574 160.971602 0.511750238 48.240701 0.511750238 48.240701 14.8407574 94.9580114 14.8407574 94.9580114 36.3342682 123.394635 36.3342682 123.394635 14.8407574"/><rect id="SideWhite1" x="0" y="0" width="48.7484979" height="14.3290074"/></g><g id="ChestLightBlue" transform="translate(107.652933, 63.457031)" fill="#C2E8FF"><polygon id="FrontPlateBkgd" points="94.7660008 0.467371921 94.7660008 22.1815759 122.810669 22.1815759 123.72272 1.15903441 160.971602 0.467371921 160.971602 55.7807802 49.2562947 55.7807802 49.2562947 0.709653693"/><rect id="Side2Bkgd" x="0.507796853" y="0.511750238" width="48.7484979" height="55.2690303"/></g><g id="ChestDarkBlue"><polygon id="FrontPlate" stroke="#8CD3F8" stroke-width="4.5" stroke-linecap="round" stroke-linejoin="round" points="156.909227 49.6397746 268.624535 49.6397746 268.624535 119.237811 156.909227 119.237811"/><polygon id="MiddlePart" stroke="#8CD3F8" stroke-width="4.5" stroke-linecap="round" stroke-linejoin="round" points="268.624535 63.9687818 268.624535 49.6397746 156.909227 49.6397746 156.909227 63.9687818 202.610944 63.9687818 202.610944 85.4622925 231.047568 85.4622925 231.047568 63.9687818"/><path d="M98.0047926,7.56314161 C111.379372,7.56314161 122.221611,18.4053804 122.221611,31.7799598 L122.221611,42.5883837 L122.221611,42.5883837 L73.7879744,42.5883837 L73.7879744,31.7799598 C73.7879744,18.4053804 84.6302132,7.56314161 98.0047926,7.56314161 Z" id="Side3" fill="#C2E8FF" transform="translate(98.004793, 25.075763) scale(-1, 1) rotate(90.000000) translate(-98.004793, -25.075763)"/><path d="M107.271589,5.08901638 C95.8950884,4.60825101 87.2767576,10.0820796 81.4165967,21.5105021 C81.0495863,22.2262419 80.7079255,22.8870829 80.3916144,23.4930252 L81.3581145,18.2150614 C81.7327872,17.3223178 82.3551247,15.8525515 83.2251271,13.8057623 C88.0673801,7.99459835 90.659921,5.08901638 91.00275,5.08901638 C91.345579,5.08901638 93.7103387,3.79997881 98.0970291,1.22190367 L102.888866,0.45827635 L107.271589,0.45827635 L107.271589,5.08901638 Z" id="Path-2" fill="#FFFFFF"/><path d="M98.0047926,7.56314161 C111.379372,7.56314161 122.221611,18.4053804 122.221611,31.7799598 L122.221611,42.5883837 L122.221611,42.5883837 L73.7879744,42.5883837 L73.7879744,31.7799598 C73.7879744,18.4053804 84.6302132,7.56314161 98.0047926,7.56314161 Z" id="Side3" stroke="#8CD3F8" stroke-width="4.5" stroke-linecap="round" stroke-linejoin="round" transform="translate(98.004793, 25.075763) scale(-1, 1) rotate(90.000000) translate(-98.004793, -25.075763)"/><polygon id="FrontPlate" fill="#C2E8FF" points="108.16073 0.511750238 219.876037 0.511750238 219.876037 49.639775 108.16073 49.639775"/><polygon id="FrontPlate" stroke="#8CD3F8" stroke-width="4.5" stroke-linecap="round" stroke-linejoin="round" points="108.16073 0.511750238 219.876037 0.511750238 219.876037 49.639775 108.16073 49.639775"/><rect id="Side2" stroke="#8CD3F8" stroke-width="4.5" stroke-linecap="round" stroke-linejoin="round" x="108.16073" y="63.9687849" width="48.7484979" height="55.2690303"/><rect id="Side1" stroke="#8CD3F8" stroke-width="4.5" stroke-linecap="round" stroke-linejoin="round" x="108.16073" y="49.6397746" width="48.7484979" height="14.3290074"/><path d="M222.415021,67.551034 C222.415021,70.3810129 220.14517,72.6685365 217.337053,72.6685365 C214.528936,72.6685365 212.259084,70.3810129 212.259084,67.551034 C212.259084,64.7210552 214.528936,62.4335315 217.337053,62.4335315 C220.14517,62.4335315 222.415021,64.7210552 222.415021,67.551034 Z" id="Lock2" fill="#8CD3F8"/><path d="M217.337053,70.6215363 L217.337053,75.7390388" id="Lock1" stroke="#8CD3F8" stroke-width="6" stroke-linecap="round"/><ellipse id="Screws8" fill="#8CD3F8" cx="166.557368" cy="73.6920379" rx="3.04678112" ry="3.07050155"/><ellipse id="Screws7" fill="#8CD3F8" cx="166.557368" cy="109.514556" rx="3.04678112" ry="3.07050155"/><ellipse id="Screws6" fill="#8CD3F8" cx="258.976395" cy="73.6920379" rx="3.04678112" ry="3.07050155"/><ellipse id="Screws5" fill="#8CD3F8" cx="258.976395" cy="109.514556" rx="3.04678112" ry="3.07050155"/><ellipse id="Screws4" fill="#8CD3F8" cx="147.261087" cy="73.6920379" rx="3.04678112" ry="3.07050155"/><ellipse id="Screws3" fill="#8CD3F8" cx="147.261087" cy="109.514556" rx="3.04678112" ry="3.07050155"/><ellipse id="Screws2" fill="#8CD3F8" cx="117.80887" cy="73.6920379" rx="3.04678112" ry="3.07050155"/><ellipse id="Screws1" fill="#8CD3F8" cx="117.80887" cy="109.514556" rx="3.04678112" ry="3.07050155"/><path d="M294.901183,99.6998266 L302.646924,119.256907 L302.646924,119.256907 L284.366237,119.256907 L292.111978,99.6998266 C292.417029,98.9296089 293.288707,98.5525167 294.058925,98.8575677 C294.443893,99.0100377 294.748713,99.3148579 294.901183,99.6998266 Z" id="Grass4" fill="#8CD3F8"/><path d="M305.564917,107.392588 L310.263877,119.256906 L310.263877,119.256906 L298.076753,119.256906 L302.775712,107.392588 C303.080763,106.622371 303.952441,106.245278 304.722658,106.550329 C305.107627,106.702799 305.412447,107.00762 305.564917,107.392588 Z" id="Grass3" fill="#8CD3F8"/><path d="M95.3370203,99.6998266 L103.082761,119.256907 L103.082761,119.256907 L84.8020744,119.256907 L92.5478151,99.6998266 C92.8528661,98.9296089 93.7245437,98.5525167 94.4947615,98.8575677 C94.8797301,99.0100377 95.1845504,99.3148579 95.3370203,99.6998266 Z" id="Grass2" fill="#8CD3F8" transform="translate(93.942418, 109.020661) scale(-1, 1) translate(-93.942418, -109.020661)"/><path d="M78.5797242,107.392588 L83.2786838,119.256906 L83.2786838,119.256906 L71.0915594,119.256906 L75.790519,107.392588 C76.09557,106.622371 76.9672476,106.245278 77.7374653,106.550329 C78.122434,106.702799 78.4272542,107.00762 78.5797242,107.392588 Z" id="Grass1" fill="#8CD3F8" transform="translate(77.185122, 112.867041) scale(-1, 1) translate(-77.185122, -112.867041)"/><path d="M365.613734,119.237809 L377.800858,119.237809" id="ChestHorizonLine2" stroke="#8CD3F8" stroke-width="4.5" stroke-linecap="round" stroke-linejoin="round"/><path d="M0,119.237809 L355.457797,119.237809" id="ChestHorizonLine1" stroke="#8CD3F8" stroke-width="4.5" stroke-linecap="round" stroke-linejoin="round"/></g></g><g id="Cloud2" transform="translate(89.765379, 31.815254)" stroke="#C2E8FF" stroke-linecap="round" stroke-width="4.5"><g id="Cloud2LightBlue"><path d="M44.686123,17.9112586 L63.9824034,17.9112586 C63.2501313,12.3561044 65.0808117,7.70887247 69.4744446,3.96956275 C74.519684,-0.20015226 80.5096041,0.734641522 83.7264773,2.17343933 C86.9433506,3.61223714 89.3323265,5.58902238 90.9883691,9.31921807 C91.690061,10.8897741 92.166947,12.2185369 92.4190272,13.3055064" id="Cloud2Outline4"/><path d="M84.2942775,20.9817608 C85.3665686,17.2420858 87.5672696,14.7970289 90.8963805,13.6465903 C95.8900468,11.9209324 100.625104,14.219061 102.516449,16.5314326 C104.407793,18.8438041 105.007331,20.7013977 105.364376,22.6399517 C105.602405,23.932321 105.688195,25.4265918 105.621745,27.1227641 C109.828095,26.9501817 112.648583,27.8030988 114.083208,29.6815155 C115.818346,31.9266699 115.996372,34.6123593 115.364354,36.5901441 C114.732335,38.567929 112.623788,41.4517717 108.668526,41.4517717 L28.4366237,41.4517717" id="Cloud2Outline3"/><path d="M18.2806867,28.1462643 L84.2947839,28.1462643" id="Cloud2Outline2"/><path d="M0,28.1462643 L8.12474964,28.1462643" id="Cloud2Outline1"/></g></g><g id="Cloud1" transform="translate(202.496280, 0.086737)" stroke="#C2E8FF" stroke-linecap="round" stroke-width="4.5"><g id="Cloud1LightBlue"><path d="M44.686123,17.9112586 L63.9824034,17.9112586 C63.2501313,12.3561044 65.0808117,7.70887247 69.4744446,3.96956275 C74.519684,-0.20015226 80.5096041,0.734641522 83.7264773,2.17343933 C86.9433506,3.61223714 89.3323265,5.58902238 90.9883691,9.31921807 C91.690061,10.8897741 92.166947,12.2185369 92.4190272,13.3055064" id="Cloud1Outline4"/><path d="M84.2942775,20.9817608 C85.3665686,17.2420858 87.5672696,14.7970289 90.8963805,13.6465903 C95.8900468,11.9209324 100.625104,14.219061 102.516449,16.5314326 C104.407793,18.8438041 105.007331,20.7013977 105.364376,22.6399517 C105.602405,23.932321 105.688195,25.4265918 105.621745,27.1227641 C109.828095,26.9501817 112.648583,27.8030988 114.083208,29.6815155 C115.818346,31.9266699 115.996372,34.6123593 115.364354,36.5901441 C114.732335,38.567929 112.623788,41.4517717 108.668526,41.4517717 L28.4366237,41.4517717" id="Cloud1Outline3"/><path d="M18.2806867,28.1462643 L84.2947839,28.1462643" id="Cloud1Outline2"/><path d="M0,28.1462643 L8.12474964,28.1462643" id="Cloud1Outline1"/></g></g><g id="Birds" transform="translate(335.539056, 70.708273)" stroke="#C2E8FF" stroke-linecap="round" stroke-width="4.5"><g id="BirdsLightBlue" transform="translate(31.887744, 26.114048) rotate(-15.000000) translate(-31.887744, -26.114048) translate(4.887744, 6.841646)"><path d="M31.5511744,3.76147134 C31.5511744,3.76147134 41.2259059,0.983400817 43.2894247,10.9347754" id="BirdsLine4" transform="translate(37.420300, 7.044981) rotate(41.000000) translate(-37.420300, -7.044981)"/><path d="M41.0588927,10.623111 C41.0588927,10.623111 50.7162411,7.90792596 52.8427844,17.8729308" id="BirdsLine3" transform="translate(46.950839, 13.957322) scale(-1, 1) rotate(-41.000000) translate(-46.950839, -13.957322)"/><path d="M0.741672629,30.281851 C0.741672629,30.281851 10.434659,27.453517 12.5355305,37.7079412" id="BirdsLine2"/><path d="M12.9287971,30.281851 C12.9287971,30.281851 22.6217835,27.453517 24.722655,37.7079412" id="BirdsLine1" transform="translate(18.825726, 33.816156) scale(-1, 1) translate(-18.825726, -33.816156)"/></g></g><g id="3Lines" transform="translate(254.553648, 73.355004)" stroke="#C2E8FF" stroke-linecap="round" stroke-linejoin="round" stroke-width="4.5"><g id="3LinesLightBlue"><path d="M1.52885074,0 L1.52885074,15.4003017" id="Path3"/><path d="M12.2308059,27.2072 L27.5193133,27.2072" id="Path2"/><path d="M9.17310443,18.9937054 L21.4039103,7.70015085" id="Path1"/></g></g></g></g></g></g></g></g></svg>