<svg width="142" height="44" viewBox="0 0 142 44" version="1.1" xmlns="http://www.w3.org/2000/svg" xmlns:xlink="http://www.w3.org/1999/xlink"><g id="-Spec" stroke="none" stroke-width="1" fill="none" fill-rule="evenodd"><g id="Main-Screen" transform="translate(-333.000000, -18.000000)"><g id="Hero"><g id="2017sf_Developers_logo_RGB_KO" transform="translate(333.000000, 18.000000)"><path d="M26.053913,4.95304348 C28.4742524,2.41190895 31.9630933,1.18020706 35.4423659,1.63853994 C38.9216386,2.09687283 41.9724835,4.19006312 43.6521739,7.27130435 C45.3696671,6.50362913 47.2300535,6.10772659 49.1113043,6.10956522 C56.5652174,6.10956522 62.6086957,12.2052174 62.6086957,19.7252174 C62.6086957,27.2452174 56.5652174,33.3426087 49.1113043,33.3426087 C48.218276,33.3427305 47.3274715,33.2535918 46.4521739,33.0765217 C43.9002805,37.6431101 38.2281649,39.4247068 33.5234783,37.1373913 C31.7201762,41.3880808 27.5037165,44.1062653 22.8876984,43.9938573 C18.2716802,43.8814493 14.1925249,40.9612522 12.5982609,36.6278261 C11.8920262,36.7768265 11.1722163,36.8520131 10.4504348,36.8521739 C4.67826087,36.8521739 -3.01706583e-05,32.1252174 -3.01706583e-05,26.293913 C-0.00896630585,22.5326283 1.98112123,19.0498095 5.22608696,17.1478261 C2.79189555,11.5089974 4.94535134,4.94025077 10.2454914,1.83699573 C15.5456315,-1.26625931 22.3278578,0.0706066648 26.053913,4.95304348 L26.053913,4.95304348 Z" id="Path" fill="#00A1E0" fill-rule="nonzero"/><path d="M9.06782609,22.8991304 C9.02782609,23.0017391 9.08173913,23.0226087 9.09565217,23.0417391 C9.75101095,23.4897798 10.5317135,23.7181444 11.3252174,23.693913 C12.6086957,23.693913 13.4121739,23.0121739 13.4121739,21.9130435 L13.4121739,21.8904348 C13.4121739,20.8730435 12.5113043,20.4991304 11.6730435,20.2382609 L11.5617391,20.2017391 C10.9252174,19.9947826 10.3756522,19.8173913 10.3756522,19.3982609 L10.3756522,19.3756522 C10.3756522,19.0173913 10.6973913,18.7530435 11.1947826,18.7530435 C11.7633734,18.7651645 12.3215472,18.9079808 12.826087,19.1704348 C12.826087,19.1704348 12.9513043,19.2504348 13,19.1304348 L13.2608696,18.4347826 C13.2796783,18.3777493 13.2527542,18.3156744 13.1982609,18.2904348 C12.6397506,17.96513 12.0045993,17.7946357 11.3582609,17.7965063 L11.2313043,17.7965063 C10.0556522,17.7965063 9.23478261,18.506087 9.23478261,19.5234783 L9.23478261,19.546087 C9.23478261,20.6173913 10.1391304,20.9669565 10.9878261,21.2086957 L11.1234783,21.2504348 C11.7426087,21.44 12.2747826,21.5982609 12.2747826,22.0382609 L12.2747826,22.0608696 C12.2747826,22.4591304 11.9269565,22.7565217 11.3704348,22.7565217 C10.7845998,22.7613219 10.2099953,22.5957681 9.71652174,22.28 C9.62608696,22.2278261 9.57391304,22.1895652 9.50434783,22.146087 C9.47670347,22.1186891 9.43593759,22.1092905 9.39908813,22.1218193 C9.36223868,22.1343481 9.33565002,22.1666473 9.33043478,22.2052174 L9.06782609,22.8991304 Z" id="Path" fill="#FFFFFF" fill-rule="nonzero"/><path d="M27.8695652,22.8991304 C27.8295652,23.0017391 27.8834783,23.0226087 27.8956522,23.0417391 C28.0113046,23.1197048 28.1308821,23.1916835 28.253913,23.2573913 C28.8303918,23.5597147 29.4744719,23.7099601 30.1252174,23.693913 C31.4104348,23.693913 32.2121739,23.0121739 32.2121739,21.9130435 L32.2121739,21.8904348 C32.2121739,20.8730435 31.3113043,20.4991304 30.4730435,20.2382609 L30.3634783,20.2017391 C29.7269565,19.9947826 29.1773913,19.8173913 29.1773913,19.3982609 L29.1773913,19.3756522 C29.1773913,19.0173913 29.4991304,18.7530435 29.9965217,18.7530435 C30.5651126,18.7651645 31.1232863,18.9079808 31.6278261,19.1704348 C31.6278261,19.1704348 31.7530435,19.2504348 31.8017391,19.1304348 L32.0626087,18.4347826 C32.0805963,18.3777892 32.0539031,18.3162467 32,18.2904348 C31.4413922,17.9653643 30.8063056,17.7948873 30.16,17.7965101 L30.0313043,17.7965101 C28.8573913,17.7965101 28.0365217,18.506087 28.0365217,19.5234783 L28.0365217,19.546087 C28.0365217,20.6173913 28.9408696,20.9669565 29.7895652,21.2086957 L29.9252174,21.2504348 C30.5426087,21.44 31.0765217,21.5982609 31.0765217,22.0382609 L31.0765217,22.0608696 C31.0765217,22.4591304 30.7286957,22.7565217 30.1721739,22.7565217 C29.586339,22.7613219 29.0117344,22.5957681 28.5182609,22.28 C28.4278261,22.2278261 28.373913,22.1913043 28.306087,22.146087 C28.276945,22.1231711 28.2381914,22.1165462 28.2030919,22.1284801 C28.1679924,22.1404139 28.1413084,22.1692876 28.1321739,22.2052174 L27.8695652,22.8991304 Z" id="Path" fill="#FFFFFF" fill-rule="nonzero"/><path d="M41.7773913,19.5930435 C41.6802654,19.2525699 41.5138946,18.935814 41.2886957,18.6626087 C41.0640522,18.3957682 40.7831304,18.1819588 40.466087,18.0365217 C39.7307397,17.7281042 38.9023038,17.7281042 38.1669565,18.0365217 C37.8496434,18.1815089 37.5686295,18.3953885 37.3443478,18.6626087 C37.120015,18.9363887 36.9537428,19.2529568 36.8556522,19.5930435 C36.6446312,20.3466662 36.6446312,21.1437686 36.8556522,21.8973913 C36.9537428,22.2374779 37.120015,22.5540461 37.3443478,22.8278261 C37.5678241,23.0945871 37.849148,23.3069182 38.1669565,23.4486957 C38.9030907,23.7501307 39.7282136,23.7501307 40.4643478,23.4486957 C40.7829406,23.3074109 41.0649351,23.0950226 41.2886957,22.8278261 C41.5138946,22.5546207 41.6802654,22.2378649 41.7773913,21.8973913 C41.9861191,21.1434553 41.9861191,20.3469795 41.7773913,19.5930435 M40.7043478,20.7443478 C40.7043478,21.3669565 40.5895652,21.8573913 40.3565217,22.2017391 C40.1266074,22.5479906 39.7274736,22.7429009 39.3130435,22.7113043 C38.8365217,22.7113043 38.4973913,22.5373913 38.2695652,22.2034783 C38.0417391,21.8695652 37.9217391,21.3669565 37.9217391,20.7443478 C37.9217391,20.1217391 38.0347826,19.6365217 38.2695652,19.293913 C38.4999948,18.9487787 38.8994378,18.7557146 39.3130435,18.7895652 C39.7258792,18.7597904 40.1233766,18.9519141 40.3565217,19.293913 C40.5843478,19.6417391 40.7043478,20.1234783 40.7043478,20.7443478" id="Shape" fill="#FFFFFF" fill-rule="nonzero"/><path d="M50.5808696,22.546087 C50.572315,22.5185087 50.5525366,22.4958111 50.5263879,22.4835643 C50.5002392,22.4713174 50.4701406,22.4706548 50.4434783,22.4817391 C50.282409,22.5457957 50.1151404,22.5930039 49.9443478,22.6226087 C49.7498107,22.6521543 49.5532888,22.6666899 49.3565217,22.666087 C48.9017448,22.690312 48.457442,22.5239348 48.1304348,22.2069565 C47.8347826,21.9008696 47.6678261,21.4069565 47.6713043,20.7408696 C47.64812,20.2377013 47.7924665,19.7410513 48.0817391,19.3286957 C48.3426087,18.9808696 48.7408696,18.8069565 49.2713043,18.8069565 C49.6554461,18.8006329 50.0381632,18.8552229 50.4052174,18.9686957 C50.4052174,18.9686957 50.4886957,19.0052174 50.5286957,18.8956522 C50.6226087,18.6347826 50.6921739,18.4486957 50.7930435,18.1634783 C50.8022005,18.1376636 50.8000636,18.1091862 50.7871567,18.0850271 C50.7742498,18.060868 50.7517661,18.0432608 50.7252174,18.0365217 C50.4924646,17.9578844 50.2532978,17.899693 50.0104348,17.8626087 C49.744294,17.8249506 49.4757426,17.8069309 49.2069565,17.8086957 C48.7969859,17.8003749 48.3898683,17.8785984 48.0121739,18.0382609 C47.68038,18.181488 47.3836776,18.3951137 47.1426087,18.6643478 C46.9077916,18.9361782 46.7303269,19.2526569 46.6208696,19.5947826 C46.5028594,19.9682453 46.4441748,20.357911 46.4469565,20.7495652 C46.4469565,21.6382609 46.6869565,22.3565217 47.16,22.8834783 C47.6330435,23.4104348 48.346087,23.6800048 49.2765217,23.6800048 C49.7947328,23.6807676 50.3089079,23.5888875 50.7947826,23.4086957 C50.8407702,23.3847065 50.8598876,23.3288839 50.8382609,23.2817391 L50.5808696,22.546087 Z" id="Path" fill="#FFFFFF"/><path d="M56.0643478,19.3913043 C55.9728434,19.0775997 55.8144231,18.7874591 55.6,18.5408696 C55.4068647,18.3205336 55.1699482,18.1428463 54.9043478,18.0191304 C54.574529,17.8783115 54.2194916,17.8060671 53.8608696,17.8069565 C53.4492602,17.7966405 53.0403488,17.8761675 52.6626087,18.04 C52.3396872,18.1877548 52.0538779,18.4058255 51.826087,18.6782609 C51.5992529,18.9552137 51.4322645,19.276163 51.3356522,19.6208696 C51.2268657,19.9966523 51.172975,20.386188 51.1756522,20.7773913 C51.1719277,21.1701762 51.2276301,21.5612655 51.3408696,21.9373913 C51.5506734,22.6458551 52.0844733,23.2125738 52.7791304,23.4643478 C53.2011614,23.6155392 53.6474903,23.6874707 54.0956522,23.6765217 C55.1391304,23.6765217 55.6956522,23.44 55.9234783,23.3130435 C55.9634783,23.2921739 56.0017391,23.2521739 55.9547826,23.1391304 L55.7165217,22.4747826 C55.7074846,22.447953 55.6879338,22.425947 55.6623549,22.4138134 C55.6367761,22.4016799 55.607365,22.4004604 55.5808696,22.4104348 C55.1098909,22.608681 54.6010161,22.7007179 54.0904348,22.68 C53.5286957,22.68 53.1113043,22.506087 52.8486957,22.2521739 C52.586087,21.9982609 52.4486957,21.5965217 52.4278261,21.0452174 L56.0556522,21.0452174 C56.1097316,21.0445927 56.154684,21.0033863 56.16,20.9495652 C56.235055,20.4290709 56.2024994,19.8987112 56.0643478,19.3913043 Z M52.4556522,20.1495652 C52.489878,19.8462877 52.5902063,19.5542079 52.7495652,19.293913 C52.9777664,18.9444533 53.3765549,18.745059 53.7930435,18.7721739 C54.2017694,18.7483685 54.5912545,18.9481045 54.8104348,19.293913 C54.9614561,19.5542666 55.0440269,19.8486494 55.0504348,20.1495652 L52.4556522,20.1495652 Z" id="Shape" fill="#FFFFFF"/><path d="M27.0017391,19.3913043 C26.9102347,19.0775997 26.7518144,18.7874591 26.5373913,18.5408696 C26.344256,18.3205336 26.1073395,18.1428463 25.8417391,18.0191304 C25.5119057,17.8783581 25.1568781,17.8061206 24.7982609,17.8069565 C24.3866796,17.7969746 23.9778393,17.8764878 23.6,18.04 C23.2778871,18.1882767 22.9927526,18.4062858 22.7652174,18.6782609 C22.5384726,18.9555315 22.3709674,19.2763364 22.2730435,19.6208696 C22.1656916,19.9969168 22.1124038,20.3863283 22.1147826,20.7773913 C22.1113617,21.1700312 22.1664593,21.5609897 22.2782609,21.9373913 C22.4896603,22.645527 23.0237216,23.2118383 23.7182609,23.4643478 C24.1402618,23.6156558 24.5866126,23.6875908 25.0347826,23.6765217 C26.0782609,23.6765217 26.6347826,23.44 26.8626087,23.3130435 C26.9026087,23.2921739 26.9408696,23.2521739 26.893913,23.1391304 L26.6556522,22.4747826 C26.646615,22.447953 26.6270642,22.425947 26.6014854,22.4138134 C26.5759066,22.4016799 26.5464955,22.4004604 26.52,22.4104348 C26.0490213,22.608681 25.5401465,22.7007179 25.0295652,22.68 C24.466087,22.68 24.0504348,22.506087 23.7878261,22.2521739 C23.5252174,21.9982609 23.3878261,21.5965217 23.3652174,21.0452174 L26.9947826,21.0452174 C27.048862,21.0445927 27.0938144,21.0033863 27.0991304,20.9495652 C27.1736194,20.4289522 27.1404718,19.898591 27.0017391,19.3913043 Z M23.3930435,20.1495652 C23.4275578,19.8466079 23.5272306,19.554709 23.6852174,19.293913 C23.9136708,18.9447363 24.3122822,18.7454306 24.7286957,18.7721739 C25.1374216,18.7483685 25.5269067,18.9481045 25.746087,19.293913 C25.8963432,19.554589 25.9788579,19.8487719 25.986087,20.1495652 L23.3930435,20.1495652 Z" id="Shape" fill="#FFFFFF"/><path d="M16.9930435,19.9756522 C16.8452174,19.9652174 16.6556522,19.96 16.426087,19.96 C16.1243591,19.9586908 15.8237828,19.9972862 15.5321739,20.0747826 C15.2612655,20.1446543 15.0050512,20.2624539 14.7756522,20.4226087 C14.3094661,20.7493837 14.0383771,21.2882956 14.053913,21.8573913 C14.0493864,22.1428535 14.1088099,22.4257095 14.2278261,22.6852174 C14.3357165,22.9111998 14.4983131,23.1066743 14.7008696,23.253913 C14.9232557,23.4091356 15.1746329,23.5179671 15.44,23.573913 C15.7560299,23.6416 16.0785555,23.6742609 16.4017391,23.6713043 C16.7706284,23.6714884 17.138878,23.6406066 17.5026087,23.5791304 C17.8591304,23.5182609 18.2956522,23.4295652 18.4173913,23.4052174 C18.5391304,23.3808696 18.6713043,23.3408696 18.6713043,23.3408696 C18.7236133,23.3261755 18.7584538,23.2768181 18.7547826,23.2226087 L18.7547826,19.9043478 C18.7547826,19.1756522 18.56,18.6365217 18.1773913,18.3026087 C17.7947826,17.9686957 17.2365217,17.8 16.5113043,17.8 C16.1852864,17.802882 15.8600861,17.8331332 15.5391304,17.8904348 C15.5391304,17.8904348 14.746087,18.0434783 14.4191304,18.2991304 C14.3736744,18.332394 14.3602332,18.3943727 14.3878261,18.4434783 L14.6434783,19.1391304 C14.6513945,19.1629963 14.6685506,19.182691 14.6911055,19.193805 C14.7136605,19.204919 14.7397303,19.2065241 14.7634783,19.1982609 C14.7838059,19.1890367 14.8035526,19.1785825 14.8226087,19.1669565 C15.3156915,18.9285186 15.85578,18.8031515 16.4034783,18.8 C16.7201957,18.7784368 17.0352928,18.860875 17.3008696,19.0347826 C17.4991304,19.186087 17.6,19.4156522 17.6,19.9043478 L17.6,20.0573913 C17.28,19.9982609 16.9930435,19.9756522 16.9930435,19.9756522 Z M15.5495652,22.5252174 C15.4655003,22.4690897 15.3938725,22.3962781 15.3391304,22.3113043 C15.2590361,22.1670468 15.2216381,22.0029786 15.2313043,21.8382609 C15.2133315,21.5663651 15.3352922,21.304084 15.5547826,21.1426087 C15.5547826,21.1426087 15.8678261,20.8713043 16.6069565,20.8817391 C16.937186,20.8867506 17.2666711,20.9146435 17.5930435,20.9652174 L17.5930435,22.6069565 L17.5930435,22.6069565 C17.2693831,22.672389 16.9416862,22.7159657 16.6121739,22.7373913 C15.8747826,22.7808696 15.546087,22.5252174 15.5495652,22.5252174 L15.5495652,22.5252174 Z" id="Shape" fill="#FFFFFF" fill-rule="nonzero"/><path d="M46.2608696,18.106087 C46.2716246,18.0814892 46.2717491,18.0535429 46.2612136,18.0288503 C46.2506781,18.0041578 46.2304171,17.9849092 46.2052174,17.9756522 C46.0067763,17.9212011 45.8034933,17.8862527 45.5982609,17.8713043 C45.2784489,17.8368164 44.9552508,17.8890808 44.6626087,18.0226087 C44.4251912,18.1228378 44.2148325,18.2777762 44.0486957,18.4747826 L44.0486957,18.0330435 C44.0501258,18.0044763 44.0397667,17.9765745 44.0200406,17.955862 C44.0003144,17.9351495 43.9729507,17.9234425 43.9443478,17.9234783 L43.013913,17.9234783 C42.9853101,17.9234425 42.9579465,17.9351495 42.9382203,17.955862 C42.9184941,17.9765745 42.908135,18.0044763 42.9095652,18.0330435 L42.9095652,23.4469565 C42.9095652,23.5074677 42.9586192,23.5565217 43.0191304,23.5565217 L43.973913,23.5565217 C44.0344242,23.5565217 44.0834783,23.5074677 44.0834783,23.4469565 L44.0834783,20.7408696 C44.0751266,20.4195236 44.1155872,20.0987709 44.2034783,19.7895652 C44.2666363,19.5892816 44.3756058,19.4064749 44.5217391,19.2556522 C44.6474561,19.131029 44.8013719,19.0385602 44.9704348,18.986087 C45.1281237,18.9405107 45.29151,18.9176718 45.4556522,18.9182609 C45.5901713,18.9212154 45.7241059,18.9369381 45.8556522,18.9652174 C45.9252174,18.973913 45.9634783,18.9304348 45.9878261,18.8678261 C46.0521739,18.7026087 46.2278261,18.2052174 46.2608696,18.106087 Z" id="Path" fill="#FFFFFF"/><path d="M37.3130435,15.5982609 C37.1956925,15.5617685 37.0759962,15.5332971 36.9547826,15.5130435 C36.7916293,15.4854729 36.6263225,15.4726675 36.4608696,15.4747826 C35.8052174,15.4747826 35.2869565,15.6591304 34.9234783,16.026087 C34.56,16.3930435 34.3182609,16.9426087 34.1947826,17.6713043 L34.1513043,17.9165217 L33.3269565,17.9165217 C33.2656734,17.9167741 33.2138484,17.9619358 33.2052174,18.0226087 L33.0695652,18.7773913 C33.0695652,18.8504348 33.0904348,18.8956522 33.1878261,18.893913 L33.9895652,18.893913 L33.1756522,23.4365217 C33.1283962,23.7400641 33.0556757,24.0390906 32.9582609,24.3304348 C32.9024814,24.5166508 32.8173538,24.6927768 32.706087,24.8521739 C32.6255775,24.9707463 32.5091455,25.0603563 32.373913,25.1078261 C32.2357585,25.1522569 32.0911796,25.1734148 31.946087,25.1704348 C31.8484892,25.1680229 31.7512973,25.1569651 31.6556522,25.1373913 C31.587964,25.1241142 31.5220247,25.103107 31.4591304,25.0747826 C31.4342597,25.0646316 31.4063342,25.0650085 31.3817465,25.075827 C31.3571588,25.0866456 31.3380144,25.1069795 31.3286957,25.1321739 C31.2991304,25.2104348 31.0852174,25.7982609 31.0591304,25.8695652 C31.0346082,25.9252861 31.0594022,25.9903704 31.1147826,26.0156522 C31.2232075,26.0550397 31.3341889,26.0869977 31.4469565,26.1113043 C31.621479,26.1508137 31.8002577,26.1683411 31.9791304,26.1634783 C32.2816868,26.1679678 32.5827996,26.1209189 32.8695652,26.0243478 C33.1280114,25.9261844 33.3580702,25.765442 33.5391304,25.5565217 C33.7484661,25.3193797 33.9091889,25.0434328 34.0121739,24.7443478 C34.1549563,24.3490409 34.2614822,23.9415647 34.3304348,23.5269565 L35.1478261,18.9008696 L36.3478261,18.9008696 C36.408816,18.9014947 36.4608551,18.8568897 36.4695652,18.7965217 L36.6052174,18.0417391 C36.613913,17.9686957 36.5843478,17.9234783 36.4869565,17.9234783 L35.3217391,17.9234783 C35.362335,17.6461058 35.4263314,17.3726663 35.5130435,17.106087 C35.5686625,16.9599826 35.6552889,16.8276697 35.7669565,16.7182609 C35.8520206,16.6323338 35.9563585,16.5679423 36.0713043,16.5304348 C36.1972669,16.4906475 36.3287845,16.4712722 36.4608696,16.4730435 C36.5608105,16.473266 36.6604641,16.4837559 36.7582609,16.5043478 C36.8210645,16.516032 36.8831854,16.5311268 36.9443478,16.5495652 C37.0626087,16.5843478 37.0782609,16.5495652 37.1026087,16.493913 L37.3791304,15.7304348 C37.391465,15.7043633 37.3911356,15.6740699 37.3782371,15.6482728 C37.3653385,15.6224756 37.3413014,15.6040361 37.3130435,15.5982609 L37.3130435,15.5982609 Z" id="Path" fill="#FFFFFF"/><path d="M21.1008696,23.4469565 C21.1018059,23.4753909 21.0912822,23.5030099 21.0716617,23.5236115 C21.0520411,23.5442131 21.024968,23.5560708 20.9965217,23.5565217 L20.0347826,23.5565217 C20.0063364,23.5560708 19.9792632,23.5442131 19.9596427,23.5236115 C19.9400221,23.5030099 19.9294984,23.4753909 19.9304348,23.4469565 L19.9304348,15.7008696 C19.9290046,15.6723024 19.9393637,15.6444005 19.9590899,15.6236881 C19.978816,15.6029756 20.0061797,15.5913043 20.0347826,15.5913043 L20.9965217,15.5913043 C21.0251247,15.5913043 21.0524883,15.6029756 21.0722145,15.6236881 C21.0919406,15.6444005 21.1022997,15.6723024 21.1008696,15.7008696 L21.1008696,23.4469565 Z" id="Path" fill="#FFFFFF"/><path d="M74.6695652,23.5495652 L73.4330435,23.5495652 C73.3658722,23.1564659 73.3292409,22.7587554 73.3234783,22.36 L73.2921739,22.36 C72.6973913,23.297971 71.7478261,23.7669565 70.4434783,23.7669565 C69.3165217,23.7669565 68.4527536,23.3808696 67.8521739,22.6086957 C67.2515942,21.8365217 66.9530435,20.8301449 66.9565217,19.5895652 C66.9454166,18.8479353 67.097406,18.1129238 67.4017391,17.4365217 C67.6771513,16.8211802 68.1193491,16.2952419 68.6782609,15.9182609 C69.2592401,15.5393651 69.9413636,15.3453388 70.6347826,15.3617391 C71.6991304,15.3617391 72.5652174,15.706087 73.2330435,16.3947826 L73.2330435,12.466087 L74.5634783,12.466087 L74.5634783,21.7791304 C74.5633364,22.3708679 74.5987626,22.9620789 74.6695652,23.5495652 Z M73.2295652,20.12 L73.2295652,17.6156522 C72.9478203,17.245585 72.5864355,16.9436384 72.1721739,16.7321739 C71.7497294,16.5319093 71.2865485,16.4324862 70.8191304,16.4417391 C70.1047428,16.4126048 69.4220291,16.7380165 68.9947826,17.3113043 C68.5507246,17.897971 68.3292754,18.6550725 68.3304303,19.5826087 C68.3304303,20.5426087 68.5443478,21.3014493 68.9721739,21.8591304 C69.3883862,22.4117589 70.04964,22.7245053 70.7408696,22.6956522 C71.4198348,22.7252286 72.0785115,22.4602365 72.5478261,21.9686957 C73.0080083,21.4652801 73.2527305,20.8016584 73.2295652,20.12 L73.2295652,20.12 Z" id="Shape" fill="#FFFFFF" fill-rule="nonzero"/><path d="M83.3043478,20.0417391 L77.3913043,20.0417391 C77.4434783,20.8556522 77.6886957,21.5043478 78.1269565,21.9826087 C78.5652174,22.4608696 79.1913043,22.7026087 80.0052174,22.7026087 C80.4431637,22.7093343 80.8792027,22.643517 81.2956522,22.5078261 C81.7039616,22.3642067 82.0911775,22.1665043 82.4469565,21.92 L83.0434783,22.7808696 C82.6068723,23.0994054 82.1234248,23.3481696 81.6104348,23.5182609 C81.0665351,23.6895771 80.4989,23.773519 79.9286957,23.7669565 C78.7078261,23.7669565 77.7553623,23.3808696 77.0713043,22.6086957 C76.3872464,21.8365217 76.0457971,20.8086957 76.0469565,19.5252174 C76.031535,18.7766187 76.1811656,18.0338095 76.4852174,17.3495652 C76.7567259,16.7470572 77.2002232,16.2382152 77.76,15.8869565 C78.3674448,15.5251914 79.0654764,15.3441979 79.7721739,15.3652174 C80.9315942,15.3652174 81.8156522,15.7408696 82.4243478,16.4921739 C83.0330435,17.2434783 83.3385507,18.2382609 83.3408696,19.4765217 C83.3430637,19.6655815 83.3308545,19.8545339 83.3043478,20.0417391 Z M82.0365217,19.0086957 C82.0156522,18.217971 81.8121739,17.5802899 81.426087,17.0956522 C81.04,16.6173913 80.4817391,16.3756522 79.7513043,16.3756522 C79.0208696,16.3756522 78.4365217,16.6243478 78.0295652,17.12 C77.6075401,17.6581729 77.3762958,18.3213181 77.3721739,19.0052174 L82.0365217,19.0086957 Z" id="Shape" fill="#FFFFFF" fill-rule="nonzero"/><polygon id="Path" fill="#FFFFFF" fill-rule="nonzero" points="88.3026087 23.5495652 86.8156522 23.5495652 83.7791304 15.5808696 85.2034783 15.5808696 87.5669565 22.2173913 87.613913 22.2173913 89.8991304 15.5808696 91.2765217 15.5808696"/><path d="M99.0069565,20.0417391 L93.093913,20.0417391 C93.146087,20.8556522 93.3913043,21.5043478 93.8295652,21.9826087 C94.2678261,22.4608696 94.893913,22.7026087 95.7078261,22.7026087 C96.1463417,22.7093345 96.5829527,22.6435196 97,22.5078261 C97.4077461,22.3641611 97.7943812,22.1664565 98.1495652,21.92 L98.7443478,22.7808696 C98.3083794,23.0994145 97.8255025,23.348187 97.3130435,23.5182609 C96.7685357,23.6895297 96.200336,23.7734683 95.6295652,23.7669565 C94.4086957,23.7669565 93.4568116,23.3808696 92.773913,22.6086957 C92.0910145,21.8365217 91.7489855,20.8086957 91.7478261,19.5252174 C91.7324046,18.7766187 91.8820352,18.0338095 92.186087,17.3495652 C92.4582386,16.7469347 92.9023235,16.2381126 93.4626087,15.8869565 C94.0694379,15.5252428 94.7669001,15.3442405 95.4730435,15.3652174 C96.6324638,15.3652174 97.5171014,15.7408696 98.1269565,16.4921739 C98.7368116,17.2434783 99.0405797,18.2382609 99.0382609,19.4765217 C99.0421837,19.6654489 99.0317187,19.8544006 99.0069565,20.0417391 L99.0069565,20.0417391 Z M97.7391304,19.0086957 C97.7182609,18.217971 97.5147826,17.5802899 97.1286957,17.0956522 C96.7426087,16.6173913 96.1843478,16.3756522 95.453913,16.3756522 C94.7234783,16.3756522 94.1391304,16.6243478 93.7321739,17.12 C93.3101488,17.6581729 93.0789045,18.3213181 93.0747826,19.0052174 L97.7391304,19.0086957 Z" id="Shape" fill="#FFFFFF" fill-rule="nonzero"/><polygon id="Path" fill="#FFFFFF" fill-rule="nonzero" points="101.949565 12.466087 101.949565 23.5495652 100.61913 23.5495652 100.61913 12.466087"/><path d="M111.450435,19.5408696 C111.464346,20.300116 111.301194,21.0521642 110.973913,21.7373913 C110.672596,22.3610508 110.193308,22.8814905 109.596522,23.2330435 C108.939793,23.6007446 108.195858,23.7840242 107.443478,23.7634783 C106.692905,23.7826866 105.951371,23.5962508 105.29913,23.2243478 C104.701813,22.8734527 104.222357,22.3528304 103.921739,21.7286957 C103.598011,21.0443523 103.437285,20.2942954 103.452174,19.5373913 C103.452174,18.262029 103.8,17.2475362 104.495652,16.493913 C105.191304,15.7402899 106.172174,15.3617391 107.438261,15.3582609 C108.194769,15.3354982 108.94358,15.5156453 109.606957,15.88 C110.198508,16.2205499 110.675051,16.7297902 110.975652,17.3426087 C111.304257,18.0279407 111.466905,18.7810077 111.450435,19.5408696 L111.450435,19.5408696 Z M104.829565,19.5408696 C104.829565,20.4915942 105.046377,21.2562319 105.48,21.8347826 C105.913623,22.4133333 106.568116,22.7031884 107.443478,22.7043478 C108.330435,22.7043478 108.993043,22.4144928 109.431304,21.8347826 C109.869565,21.2550725 110.088116,20.4904348 110.086961,19.5408696 C110.086961,18.5930435 109.867826,17.8347826 109.429565,17.2713043 C108.991304,16.7078261 108.328696,16.426087 107.441739,16.426087 C106.554783,16.426087 105.897391,16.7078261 105.469565,17.2713043 C105.041739,17.8347826 104.829565,18.5930435 104.829565,19.5408696 Z" id="Shape" fill="#FFFFFF" fill-rule="nonzero"/><path d="M120.638261,19.5565217 C120.649829,20.294668 120.500267,21.026456 120.2,21.7008696 C119.927439,22.3156151 119.485219,22.8398842 118.925217,23.2121739 C118.340405,23.5895579 117.655825,23.7828156 116.96,23.7669565 C115.996303,23.7841085 115.062692,23.4312035 114.351304,22.7808696 L114.351304,27.3686957 L113.02087,27.3686957 L113.02087,17.3652174 C113.020025,16.7687801 112.983438,16.1729294 112.911304,15.5808696 L114.17913,15.5808696 C114.236728,15.9844934 114.273299,16.390839 114.288696,16.7982609 L114.32,16.7982609 C114.585623,16.3589476 114.963912,15.9986729 115.415652,15.7547826 C115.947,15.48019 116.539554,15.3455186 117.137391,15.3634783 C117.821817,15.3408692 118.495808,15.5356993 119.062609,15.92 C119.591228,16.2986931 120.001358,16.8197994 120.245217,17.4226087 C120.517786,18.1004222 120.651444,18.8260759 120.638261,19.5565217 L120.638261,19.5565217 Z M119.26087,19.5565217 C119.26087,18.5965217 119.049855,17.8347826 118.627826,17.2713043 C118.217597,16.7161116 117.55937,16.399694 116.869565,16.426087 C116.40783,16.4203174 115.953262,16.5405734 115.554783,16.773913 C115.175386,16.9973222 114.866281,17.3226959 114.662609,17.7130435 C114.453083,18.1137805 114.345564,18.5599848 114.349565,19.0121739 L114.349565,21.6573913 C114.662624,21.9859728 115.031163,22.2567847 115.438261,22.4573913 C115.829565,22.6302705 116.254043,22.715166 116.681739,22.706087 C117.516522,22.706087 118.154203,22.4162319 118.594783,21.8365217 C119.035362,21.2568116 119.257391,20.4968116 119.26087,19.5565217 Z" id="Shape" fill="#FFFFFF" fill-rule="nonzero"/><path d="M129.137391,20.0417391 L123.224348,20.0417391 C123.276522,20.8556522 123.521739,21.5043478 123.96,21.9826087 C124.398261,22.4608696 125.024348,22.7026087 125.838261,22.7026087 C126.276776,22.7093345 126.713387,22.6435196 127.130435,22.5078261 C127.538181,22.3641611 127.924816,22.1664565 128.28,21.92 L128.869565,22.7808696 C128.433597,23.0994145 127.95072,23.348187 127.438261,23.5182609 C126.893753,23.6895297 126.325553,23.7734683 125.754783,23.7669565 C124.533913,23.7669565 123.582029,23.3808696 122.89913,22.6086957 C122.216232,21.8365217 121.874203,20.8086957 121.873043,19.5252174 C121.857622,18.7766187 122.007253,18.0338095 122.311304,17.3495652 C122.583456,16.7469347 123.027541,16.2381126 123.587826,15.8869565 C124.194655,15.5252428 124.892117,15.3442405 125.598261,15.3652174 C126.757681,15.3652174 127.642319,15.7408696 128.252174,16.4921739 C128.862029,17.2434783 129.167536,18.2382609 129.168696,19.4765217 C129.172618,19.6654489 129.162153,19.8544006 129.137391,20.0417391 L129.137391,20.0417391 Z M127.869565,19.0086957 C127.848696,18.217971 127.645217,17.5802899 127.25913,17.0956522 C126.873043,16.6173913 126.314783,16.3756522 125.584348,16.3756522 C124.853913,16.3756522 124.269565,16.6243478 123.862609,17.12 C123.440584,17.6581729 123.209339,18.3213181 123.205217,19.0052174 L127.869565,19.0086957 Z" id="Shape" fill="#FFFFFF" fill-rule="nonzero"/><path d="M130.890435,17.3652174 C130.890167,16.7688149 130.854161,16.1729644 130.782609,15.5808696 L132.050435,15.5808696 C132.108411,16.0019318 132.14498,16.4256653 132.16,16.8504348 L132.191304,16.8504348 C132.655072,15.857971 133.489855,15.3617391 134.695652,15.3617391 C134.847754,15.368371 134.999327,15.3840509 135.149565,15.4086957 L135.071304,16.5513043 C134.910828,16.5263681 134.748437,16.5158913 134.586087,16.52 C133.824348,16.52 133.24,16.7773913 132.833043,17.2869565 C132.426087,17.7965217 132.222609,18.4608696 132.222609,19.2747826 L132.222609,23.5495652 L130.892174,23.5495652 L130.890435,17.3652174 Z" id="Path" fill="#FFFFFF" fill-rule="nonzero"/><path d="M141.361739,16.2069565 L140.766957,17.0417391 C140.182162,16.6245941 139.481806,16.4002615 138.763478,16.4 C138.351905,16.3769192 137.942898,16.4781105 137.589565,16.6904348 C137.314634,16.871143 137.154315,17.1825452 137.166957,17.5113043 C137.1574,17.7380293 137.218142,17.9621679 137.34087,18.1530435 C137.48951,18.3464135 137.690504,18.4930842 137.92,18.5756522 C138.30612,18.7276644 138.70395,18.8480603 139.109565,18.9356522 C139.921159,19.1350725 140.523478,19.4249275 140.916522,19.8052174 C141.31341,20.1986432 141.526713,20.7407366 141.504348,21.2991304 C141.538141,22.0144644 141.211739,22.6992547 140.634783,23.1234783 C140.005186,23.570288 139.246375,23.7981757 138.474783,23.7721739 C137.326957,23.7721739 136.366957,23.4649275 135.594783,22.8504348 L136.205217,22.0191304 C136.526855,22.2442081 136.877987,22.4238704 137.248696,22.5530435 C137.628111,22.6737243 138.024501,22.7324487 138.422609,22.7269565 C138.869448,22.7503669 139.311841,22.6283277 139.683478,22.3791304 C139.991632,22.1468366 140.164325,21.7766874 140.144348,21.3913043 C140.155125,21.1524034 140.094586,20.9156968 139.970435,20.7113043 C139.825476,20.5159159 139.627497,20.3662245 139.4,20.28 C139.009885,20.1268313 138.609476,20.0013039 138.201739,19.9043478 C137.377391,19.6956522 136.777391,19.4156522 136.401739,19.0591304 C136.026087,18.7026087 135.838261,18.213913 135.838261,17.5878261 C135.818159,16.9504918 136.114362,16.3444147 136.629565,15.9686957 C137.154783,15.5675362 137.850435,15.3663768 138.716522,15.3652174 C139.667693,15.3413074 140.599302,15.6377564 141.361739,16.2069565 Z" id="Path" fill="#FFFFFF" fill-rule="nonzero"/></g></g></g></g></svg>